%
M48
M72
T01C0.03200
T02C0.04000
T03C0.04400
%
T01
X11800Y61500
X21800Y61500
X21800Y81500
X11800Y81500
X31800Y96500
X31800Y106500
X56800Y86500
X66800Y86500
X66800Y76500
X86800Y81500
X86800Y91500
X96800Y91500
X101800Y101500
X101800Y111500
X111800Y101500
X106800Y61500
X96800Y61500
X96800Y51500
T02
X41800Y51500
X41800Y61500
X36800Y81500
X56800Y101500
X56800Y111500
X46800Y131500
X46800Y141500
X46800Y151500
X46800Y161500
X46800Y171500
X46800Y181500
X46800Y191500
X46800Y201500
X46800Y211500
X46800Y221500
X46800Y231500
X46800Y241500
X26800Y221500
X26800Y211500
X26800Y201500
X26800Y191500
X26800Y181500
X26800Y171500
X26800Y161500
X26800Y151500
X81800Y71500
X86800Y111500
X106800Y131500
X106800Y141500
X106800Y151500
X106800Y161500
X106800Y171500
X106800Y181500
X106800Y191500
X106800Y201500
X106800Y211500
X106800Y221500
X106800Y231500
X106800Y241500
X136800Y246500
X136800Y171500
X136800Y161500
X136800Y151500
X136800Y141500
X136800Y131500
X116800Y71500
X126800Y61500
T03
X136800Y196500
X136800Y226500
M30
