G75*
%MOIN*%
%OFA0B0*%
%FSLAX25Y25*%
%IPPOS*%
%LPD*%
%AMOC8*
5,1,8,0,0,1.08239X$1,22.5*
%
%ADD10C,0.01600*%
%ADD11C,0.01000*%
%ADD12C,0.00600*%
%ADD13C,0.07400*%
%ADD14OC8,0.06600*%
%ADD15OC8,0.06000*%
%ADD16C,0.06000*%
%ADD17OC8,0.05200*%
D10*
X0001800Y0036500D02*
X0151800Y0036500D01*
X0151800Y0256500D01*
X0001800Y0256500D01*
X0001800Y0036500D01*
D11*
X0001800Y0001500D01*
X0002300Y0016500D02*
X0021800Y0014500D01*
X0021800Y0014044D02*
X0002300Y0016500D01*
X0021800Y0018500D01*
X0021800Y0018956D02*
X0021800Y0014044D01*
X0021800Y0015500D02*
X0002300Y0016500D01*
X0021800Y0017500D01*
X0021800Y0018956D02*
X0002300Y0016500D01*
X0151300Y0016500D01*
X0131800Y0014500D01*
X0131800Y0014044D02*
X0151300Y0016500D01*
X0131800Y0018500D01*
X0131800Y0018956D02*
X0131800Y0014044D01*
X0131800Y0015500D02*
X0151300Y0016500D01*
X0131800Y0017500D01*
X0131800Y0018956D02*
X0151300Y0016500D01*
X0151800Y0001500D02*
X0151800Y0036500D01*
X0191800Y0036500D01*
X0176800Y0037000D02*
X0177800Y0056500D01*
X0178800Y0056500D02*
X0176800Y0037000D01*
X0174800Y0056500D01*
X0174344Y0056500D02*
X0179256Y0056500D01*
X0176800Y0037000D01*
X0175800Y0056500D01*
X0174344Y0056500D02*
X0176800Y0037000D01*
X0176800Y0256000D01*
X0178800Y0236500D01*
X0179256Y0236500D02*
X0176800Y0256000D01*
X0174800Y0236500D01*
X0174344Y0236500D02*
X0179256Y0236500D01*
X0177800Y0236500D02*
X0176800Y0256000D01*
X0175800Y0236500D01*
X0174344Y0236500D02*
X0176800Y0256000D01*
X0191800Y0256500D02*
X0151800Y0256500D01*
D12*
X0168412Y0161154D02*
X0169480Y0161154D01*
X0170547Y0160087D01*
X0170547Y0157952D01*
X0169480Y0156884D01*
X0168412Y0156884D01*
X0167345Y0157952D01*
X0167345Y0160087D01*
X0168412Y0161154D01*
X0170547Y0160087D02*
X0171615Y0161154D01*
X0172682Y0161154D01*
X0173750Y0160087D01*
X0173750Y0157952D01*
X0172682Y0156884D01*
X0171615Y0156884D01*
X0170547Y0157952D01*
X0169480Y0154709D02*
X0170547Y0153641D01*
X0170547Y0151506D01*
X0169480Y0150439D01*
X0168412Y0150439D01*
X0167345Y0151506D01*
X0167345Y0153641D01*
X0168412Y0154709D01*
X0169480Y0154709D01*
X0170547Y0153641D02*
X0171615Y0154709D01*
X0172682Y0154709D01*
X0173750Y0153641D01*
X0173750Y0151506D01*
X0172682Y0150439D01*
X0171615Y0150439D01*
X0170547Y0151506D01*
X0172682Y0148283D02*
X0173750Y0148283D01*
X0173750Y0147216D01*
X0172682Y0147216D01*
X0172682Y0148283D01*
X0172682Y0145041D02*
X0170547Y0145041D01*
X0169480Y0143973D01*
X0169480Y0142906D01*
X0170547Y0140770D01*
X0167345Y0140770D01*
X0167345Y0145041D01*
X0172682Y0145041D02*
X0173750Y0143973D01*
X0173750Y0141838D01*
X0172682Y0140770D01*
X0172682Y0138595D02*
X0170547Y0138595D01*
X0169480Y0137528D01*
X0169480Y0136460D01*
X0170547Y0134325D01*
X0167345Y0134325D01*
X0167345Y0138595D01*
X0172682Y0138595D02*
X0173750Y0137528D01*
X0173750Y0135392D01*
X0172682Y0134325D01*
X0090387Y0025955D02*
X0091454Y0024888D01*
X0087184Y0020618D01*
X0088252Y0019550D01*
X0090387Y0019550D01*
X0091454Y0020618D01*
X0091454Y0024888D01*
X0090387Y0025955D02*
X0088252Y0025955D01*
X0087184Y0024888D01*
X0087184Y0020618D01*
X0085009Y0019550D02*
X0080739Y0019550D01*
X0082874Y0019550D02*
X0082874Y0025955D01*
X0080739Y0023820D01*
X0078583Y0020618D02*
X0078583Y0019550D01*
X0077516Y0019550D01*
X0077516Y0020618D01*
X0078583Y0020618D01*
X0075341Y0020618D02*
X0074273Y0019550D01*
X0072138Y0019550D01*
X0071070Y0020618D01*
X0071070Y0021685D01*
X0072138Y0022753D01*
X0074273Y0022753D01*
X0075341Y0021685D01*
X0075341Y0020618D01*
X0074273Y0022753D02*
X0075341Y0023820D01*
X0075341Y0024888D01*
X0074273Y0025955D01*
X0072138Y0025955D01*
X0071070Y0024888D01*
X0071070Y0023820D01*
X0072138Y0022753D01*
X0068895Y0023820D02*
X0067828Y0022753D01*
X0068895Y0021685D01*
X0068895Y0020618D01*
X0067828Y0019550D01*
X0065692Y0019550D01*
X0064625Y0020618D01*
X0066760Y0022753D02*
X0067828Y0022753D01*
X0068895Y0023820D02*
X0068895Y0024888D01*
X0067828Y0025955D01*
X0065692Y0025955D01*
X0064625Y0024888D01*
D13*
X0046800Y0131500D03*
X0046800Y0141500D03*
X0046800Y0151500D03*
X0046800Y0161500D03*
X0046800Y0171500D03*
X0046800Y0181500D03*
X0046800Y0191500D03*
X0046800Y0201500D03*
X0046800Y0211500D03*
X0046800Y0221500D03*
X0046800Y0231500D03*
X0046800Y0241500D03*
X0106800Y0241500D03*
X0106800Y0231500D03*
X0106800Y0221500D03*
X0106800Y0211500D03*
X0106800Y0201500D03*
X0106800Y0191500D03*
X0106800Y0181500D03*
X0106800Y0171500D03*
X0106800Y0161500D03*
X0106800Y0151500D03*
X0106800Y0141500D03*
X0106800Y0131500D03*
D14*
X0136800Y0196500D03*
X0136800Y0226500D03*
D15*
X0136800Y0246500D03*
X0136800Y0131500D03*
X0116800Y0071500D03*
X0126800Y0061500D03*
X0086800Y0111500D03*
X0081800Y0071500D03*
X0036800Y0081500D03*
D16*
X0038800Y0061500D02*
X0044800Y0061500D01*
X0044800Y0051500D02*
X0038800Y0051500D01*
X0053800Y0101500D02*
X0059800Y0101500D01*
X0059800Y0111500D02*
X0053800Y0111500D01*
X0029800Y0151500D02*
X0023800Y0151500D01*
X0023800Y0161500D02*
X0029800Y0161500D01*
X0029800Y0171500D02*
X0023800Y0171500D01*
X0023800Y0181500D02*
X0029800Y0181500D01*
X0029800Y0191500D02*
X0023800Y0191500D01*
X0023800Y0201500D02*
X0029800Y0201500D01*
X0029800Y0211500D02*
X0023800Y0211500D01*
X0023800Y0221500D02*
X0029800Y0221500D01*
X0133800Y0171500D02*
X0139800Y0171500D01*
X0139800Y0161500D02*
X0133800Y0161500D01*
X0133800Y0151500D02*
X0139800Y0151500D01*
X0139800Y0141500D02*
X0133800Y0141500D01*
D17*
X0111800Y0101500D03*
X0101800Y0101500D03*
X0101800Y0111500D03*
X0096800Y0091500D03*
X0086800Y0091500D03*
X0086800Y0081500D03*
X0096800Y0061500D03*
X0096800Y0051500D03*
X0106800Y0061500D03*
X0066800Y0076500D03*
X0066800Y0086500D03*
X0056800Y0086500D03*
X0031800Y0096500D03*
X0031800Y0106500D03*
X0021800Y0081500D03*
X0011800Y0081500D03*
X0011800Y0061500D03*
X0021800Y0061500D03*
M02*
