G75*
%MOIN*%
%OFA0B0*%
%FSLAX25Y25*%
%IPPOS*%
%LPD*%
%AMOC8*
5,1,8,0,0,1.08239X$1,22.5*
%
%ADD10C,0.07400*%
%ADD11OC8,0.06600*%
%ADD12OC8,0.06000*%
%ADD13C,0.06000*%
%ADD14OC8,0.05200*%
%ADD15C,0.01600*%
D10*
X0046800Y0131500D03*
X0046800Y0141500D03*
X0046800Y0151500D03*
X0046800Y0161500D03*
X0046800Y0171500D03*
X0046800Y0181500D03*
X0046800Y0191500D03*
X0046800Y0201500D03*
X0046800Y0211500D03*
X0046800Y0221500D03*
X0046800Y0231500D03*
X0046800Y0241500D03*
X0106800Y0241500D03*
X0106800Y0231500D03*
X0106800Y0221500D03*
X0106800Y0211500D03*
X0106800Y0201500D03*
X0106800Y0191500D03*
X0106800Y0181500D03*
X0106800Y0171500D03*
X0106800Y0161500D03*
X0106800Y0151500D03*
X0106800Y0141500D03*
X0106800Y0131500D03*
D11*
X0136800Y0196500D03*
X0136800Y0226500D03*
D12*
X0136800Y0246500D03*
X0136800Y0131500D03*
X0116800Y0071500D03*
X0126800Y0061500D03*
X0086800Y0111500D03*
X0081800Y0071500D03*
X0036800Y0081500D03*
D13*
X0038800Y0061500D02*
X0044800Y0061500D01*
X0044800Y0051500D02*
X0038800Y0051500D01*
X0053800Y0101500D02*
X0059800Y0101500D01*
X0059800Y0111500D02*
X0053800Y0111500D01*
X0029800Y0151500D02*
X0023800Y0151500D01*
X0023800Y0161500D02*
X0029800Y0161500D01*
X0029800Y0171500D02*
X0023800Y0171500D01*
X0023800Y0181500D02*
X0029800Y0181500D01*
X0029800Y0191500D02*
X0023800Y0191500D01*
X0023800Y0201500D02*
X0029800Y0201500D01*
X0029800Y0211500D02*
X0023800Y0211500D01*
X0023800Y0221500D02*
X0029800Y0221500D01*
X0133800Y0171500D02*
X0139800Y0171500D01*
X0139800Y0161500D02*
X0133800Y0161500D01*
X0133800Y0151500D02*
X0139800Y0151500D01*
X0139800Y0141500D02*
X0133800Y0141500D01*
D14*
X0111800Y0101500D03*
X0101800Y0101500D03*
X0101800Y0111500D03*
X0096800Y0091500D03*
X0086800Y0091500D03*
X0086800Y0081500D03*
X0096800Y0061500D03*
X0096800Y0051500D03*
X0106800Y0061500D03*
X0066800Y0076500D03*
X0066800Y0086500D03*
X0056800Y0086500D03*
X0031800Y0096500D03*
X0031800Y0106500D03*
X0021800Y0081500D03*
X0011800Y0081500D03*
X0011800Y0061500D03*
X0021800Y0061500D03*
D15*
X0011800Y0051500D02*
X0006800Y0056500D01*
X0006800Y0076500D01*
X0011800Y0081500D01*
X0011800Y0061500D02*
X0016800Y0056500D01*
X0026800Y0056500D01*
X0031800Y0061500D01*
X0041800Y0061500D01*
X0051800Y0061500D01*
X0056800Y0056500D01*
X0076800Y0056500D01*
X0086800Y0046500D01*
X0126800Y0046500D01*
X0141800Y0061500D01*
X0141800Y0106500D01*
X0121800Y0126500D01*
X0121800Y0166500D01*
X0111800Y0176500D01*
X0101800Y0176500D01*
X0086800Y0191500D01*
X0046800Y0191500D01*
X0046800Y0181500D02*
X0036800Y0171500D01*
X0036800Y0146500D01*
X0031800Y0141500D01*
X0031800Y0106500D01*
X0031800Y0096500D02*
X0036800Y0091500D01*
X0036800Y0081500D01*
X0041800Y0091500D02*
X0046800Y0086500D01*
X0046800Y0076500D01*
X0056800Y0066500D01*
X0076800Y0066500D01*
X0081800Y0061500D01*
X0096800Y0061500D01*
X0106800Y0061500D02*
X0126800Y0061500D01*
X0116800Y0071500D02*
X0116800Y0076500D01*
X0101800Y0091500D01*
X0096800Y0091500D01*
X0101800Y0101500D02*
X0106800Y0106500D01*
X0106800Y0131500D01*
X0101800Y0111500D02*
X0086800Y0111500D01*
X0076800Y0106500D02*
X0086800Y0096500D01*
X0086800Y0091500D01*
X0076800Y0106500D02*
X0076800Y0151500D01*
X0056800Y0171500D01*
X0046800Y0171500D01*
X0046800Y0161500D02*
X0056800Y0161500D01*
X0066800Y0151500D01*
X0066800Y0086500D01*
X0066800Y0076500D02*
X0071800Y0076500D01*
X0076800Y0071500D01*
X0081800Y0071500D01*
X0076800Y0051500D02*
X0041800Y0051500D01*
X0011800Y0051500D01*
X0041800Y0091500D02*
X0041800Y0126500D01*
X0046800Y0131500D01*
X0046800Y0141500D02*
X0051800Y0141500D01*
X0056800Y0136500D01*
X0056800Y0131500D01*
X0046800Y0121500D01*
X0046800Y0111500D01*
X0056800Y0101500D01*
X0056800Y0111500D02*
X0056800Y0116500D01*
X0061800Y0121500D01*
X0061800Y0141500D01*
X0051800Y0151500D01*
X0046800Y0151500D01*
X0026800Y0161500D02*
X0021800Y0161500D01*
X0016800Y0166500D01*
X0016800Y0201500D01*
X0021800Y0206500D01*
X0036800Y0206500D01*
X0041800Y0211500D01*
X0046800Y0211500D01*
X0046800Y0221500D01*
X0056800Y0231500D01*
X0066800Y0231500D01*
X0101800Y0196500D01*
X0136800Y0196500D01*
X0136800Y0131500D01*
X0126800Y0126500D02*
X0146800Y0106500D01*
X0146800Y0056500D01*
X0131800Y0041500D01*
X0086800Y0041500D01*
X0076800Y0051500D01*
X0126800Y0126500D02*
X0126800Y0171500D01*
X0111800Y0186500D01*
X0096800Y0186500D01*
X0086800Y0196500D01*
X0056800Y0196500D01*
X0046800Y0201500D01*
X0066800Y0231500D02*
X0106800Y0231500D01*
X0106800Y0211500D02*
X0121800Y0211500D01*
X0136800Y0226500D01*
X0136800Y0246500D01*
M02*
